<svg width="946" height="821" viewBox="0 0 946 821" fill="none" xmlns="http://www.w3.org/2000/svg">
<g clip-path="url(#clip0_378_2998)">
<path d="M447 741C594.46 741 714 734.732 714 727C714 719.268 594.46 713 447 713C299.54 713 180 719.268 180 727C180 734.732 299.54 741 447 741Z" fill="#F1EFEF"/>
<path d="M624.297 172.947H620.298V63.4019C620.298 46.5867 613.619 30.4602 601.728 18.57C589.838 6.67985 573.712 1.85653e-05 556.897 1.13726e-10H324.81C307.995 -3.18259e-05 291.868 6.67975 279.978 18.5699C268.088 30.46 261.408 46.5865 261.408 63.4017V664.376C261.408 681.191 268.088 697.318 279.978 709.208C291.868 721.098 307.994 727.778 324.81 727.778H556.896C573.712 727.778 589.838 721.098 601.728 709.208C613.618 697.318 620.298 681.192 620.298 664.376V250.923H624.297V172.947Z" fill="#17171C"/>
<path d="M606.804 63.8422V663.932C606.803 676.49 601.815 688.534 592.935 697.413C584.055 706.293 572.012 711.282 559.454 711.282H326.254C313.696 711.282 301.652 706.293 292.772 697.413C283.892 688.534 278.904 676.49 278.904 663.932V63.8422C278.904 51.2843 283.893 39.2408 292.772 30.361C301.652 21.4812 313.696 16.4925 326.254 16.4922H354.544C353.153 19.9082 352.624 23.6134 353.002 27.282C353.38 30.9506 354.654 34.4701 356.711 37.5309C358.768 40.5917 361.546 43.1001 364.801 44.8353C368.055 46.5706 371.686 47.4795 375.374 47.4822H508.334C512.022 47.4795 515.652 46.5705 518.907 44.8353C522.161 43.1 524.939 40.5917 526.996 37.5309C529.053 34.47 530.327 30.9506 530.705 27.282C531.083 23.6134 530.554 19.9082 529.164 16.4922H559.454C572.012 16.4925 584.055 21.4812 592.935 30.361C601.815 39.2408 606.803 51.2843 606.804 63.8422Z" fill="url(#paint0_linear_378_2998)"/>
<path d="M531.678 322.601C530.128 323.411 528.551 324.178 526.947 324.901C525.487 325.561 524.004 326.181 522.498 326.761C521.947 326.971 521.388 327.181 520.828 327.391C516.4 328.997 511.853 330.251 507.228 331.141C504.938 331.591 502.618 331.944 500.268 332.201C498.328 332.421 496.368 332.578 494.388 332.671C492.978 332.741 491.567 332.771 490.147 332.771C484.524 332.773 478.913 332.248 473.388 331.201C471.947 330.941 470.538 330.631 469.127 330.291C462.307 328.656 455.704 326.219 449.458 323.031C448.897 322.751 448.337 322.451 447.777 322.161C446.947 321.721 446.138 321.261 445.328 320.781C445.717 320.241 446.138 319.711 446.567 319.191C451.247 313.392 457.095 308.644 463.732 305.257C470.369 301.87 477.646 299.919 485.087 299.532C492.528 299.146 499.968 300.331 506.92 303.012C513.873 305.693 520.182 309.808 525.438 315.091C527.262 316.921 528.953 318.88 530.498 320.951C530.907 321.491 531.297 322.041 531.678 322.601Z" fill="url(#paint1_linear_378_2998)"/>
<path d="M492.143 278.674C516.394 278.674 536.053 259.015 536.053 234.764C536.053 210.514 516.394 190.855 492.143 190.855C467.892 190.855 448.233 210.514 448.233 234.764C448.233 259.015 467.892 278.674 492.143 278.674Z" fill="#2F2E41"/>
<path d="M503.822 278.734C519.659 270.076 525.48 250.22 516.822 234.382C508.165 218.545 488.308 212.724 472.471 221.382C456.633 230.039 450.813 249.896 459.47 265.734C468.128 281.571 487.985 287.391 503.822 278.734Z" fill="#FFDAE0"/>
<path d="M522.486 229.5C515.018 234.648 506.154 237.387 497.084 237.351C500.32 239.594 504.003 241.109 507.88 241.792C495.821 244.379 483.358 244.449 471.27 241.998C468.583 241.567 465.991 240.677 463.606 239.366C462.418 238.702 461.383 237.796 460.568 236.706C459.753 235.616 459.176 234.367 458.876 233.039C458.073 228.451 461.648 224.282 465.364 221.472C471.053 217.236 477.612 214.318 484.568 212.928C491.523 211.538 498.7 211.711 505.58 213.436C510.073 214.597 514.573 216.559 517.491 220.167C520.409 223.774 521.274 229.337 518.493 233.052L522.486 229.5Z" fill="#2F2E41"/>
<path d="M490.147 152.77C470.52 152.767 451.429 159.181 435.785 171.036C420.142 182.89 408.803 199.535 403.497 218.432C398.192 237.329 399.21 257.443 406.397 275.707C413.585 293.972 426.547 309.386 443.308 319.6L443.888 319.94C444.368 320.23 444.848 320.51 445.328 320.78C446.138 321.26 446.947 321.72 447.777 322.16C448.337 322.45 448.897 322.75 449.458 323.03C455.704 326.218 462.307 328.655 469.127 330.29C470.538 330.63 471.947 330.94 473.388 331.2C478.913 332.246 484.524 332.772 490.147 332.77C491.567 332.77 492.978 332.74 494.388 332.67C496.368 332.58 498.328 332.423 500.268 332.2C502.618 331.94 504.938 331.586 507.228 331.14C511.853 330.249 516.4 328.995 520.828 327.39C521.388 327.18 521.947 326.97 522.498 326.76C524.007 326.18 525.491 325.56 526.947 324.9C528.547 324.18 530.124 323.413 531.678 322.6C547.245 314.447 560.112 301.951 568.717 286.63C568.757 286.55 568.808 286.47 568.848 286.39C573.439 278.151 576.696 269.237 578.498 259.98C581.027 246.947 580.644 233.516 577.375 220.649C574.107 207.782 568.034 195.797 559.591 185.551C551.148 175.306 540.544 167.055 528.539 161.387C516.533 155.72 503.423 152.777 490.147 152.77ZM567.208 285.22C567.127 285.36 567.058 285.5 566.978 285.63C558.544 300.725 545.858 313.008 530.497 320.95C528.967 321.75 527.411 322.5 525.828 323.2C524.518 323.79 523.178 324.35 521.828 324.87C521.257 325.09 520.678 325.31 520.098 325.51C516.272 326.907 512.352 328.03 508.368 328.87C505.412 329.499 502.424 329.97 499.417 330.28C497.567 330.48 495.687 330.62 493.797 330.69C492.587 330.74 491.368 330.77 490.147 330.77C484.705 330.776 479.275 330.27 473.928 329.26C470.675 328.66 467.459 327.872 464.297 326.9C459.481 325.412 454.801 323.515 450.308 321.23C449.788 320.96 449.268 320.69 448.757 320.41C448.027 320.02 447.288 319.62 446.567 319.19C446.027 318.89 445.487 318.57 444.957 318.25C444.647 318.07 444.337 317.88 444.027 317.69C429.332 308.665 417.609 295.524 410.314 279.898C403.019 264.272 400.472 246.847 402.99 229.787C405.507 212.726 412.978 196.78 424.475 183.927C435.973 171.074 450.991 161.879 467.667 157.483C484.343 153.088 501.942 153.685 518.281 159.2C534.621 164.715 548.981 174.907 559.582 188.51C570.182 202.112 576.555 218.528 577.911 235.72C579.266 252.912 575.545 270.123 567.208 285.22Z" fill="#979797"/>
<path d="M469.907 191.46C469.435 186.492 463.349 183.433 458.589 184.934C453.83 186.435 450.705 191.227 449.761 196.127C449.306 198.191 449.263 200.324 449.635 202.404C450.007 204.484 450.785 206.471 451.926 208.249C454.332 211.712 458.752 213.872 462.876 212.993C467.583 211.99 470.844 207.394 471.777 202.672C472.71 197.951 471.784 193.083 470.859 188.36L469.907 191.46Z" fill="#2F2E41"/>
<path d="M536.889 198.557C536.417 193.589 530.331 190.531 525.571 192.032C520.812 193.532 517.687 198.325 516.743 203.225C516.288 205.288 516.246 207.422 516.617 209.502C516.989 211.582 517.767 213.568 518.908 215.347C521.314 218.809 525.735 220.97 529.858 220.091C534.565 219.088 537.826 214.492 538.759 209.77C539.692 205.049 538.766 200.181 537.841 195.458L536.889 198.557Z" fill="#2F2E41"/>
<path d="M334.584 278.739C333.961 278.739 333.345 278.608 332.776 278.356C332.207 278.104 331.696 277.736 331.277 277.275L281.655 223.142C281.092 222.529 280.408 222.039 279.646 221.704C278.884 221.369 278.061 221.195 277.229 221.194H15.0093C11.0299 221.19 7.21487 219.607 4.40105 216.793C1.58723 213.979 0.00446778 210.164 0 206.185V111.623C0.00446514 107.643 1.58723 103.828 4.40105 101.014C7.21487 98.2005 11.0299 96.6177 15.0093 96.6133H354.734C358.714 96.6177 362.529 98.2005 365.343 101.014C368.157 103.828 369.739 107.643 369.744 111.623V206.185C369.739 210.164 368.157 213.979 365.343 216.793C362.529 219.607 358.714 221.19 354.734 221.194H345.103C343.511 221.196 341.985 221.829 340.859 222.955C339.733 224.081 339.1 225.607 339.099 227.199V274.232C339.102 275.14 338.83 276.028 338.317 276.778C337.805 277.527 337.076 278.103 336.228 278.428C335.704 278.633 335.147 278.739 334.584 278.739Z" fill="url(#paint2_linear_378_2998)"/>
<path d="M334.584 278.739C333.961 278.739 333.345 278.608 332.776 278.356C332.207 278.104 331.696 277.736 331.277 277.275L281.655 223.142C281.092 222.529 280.408 222.039 279.646 221.704C278.884 221.369 278.061 221.195 277.229 221.194H15.0093C11.0299 221.19 7.21487 219.607 4.40105 216.793C1.58723 213.979 0.00446778 210.164 0 206.185V111.623C0.00446514 107.643 1.58723 103.828 4.40105 101.014C7.21487 98.2005 11.0299 96.6177 15.0093 96.6133H354.734C358.714 96.6177 362.529 98.2005 365.343 101.014C368.157 103.828 369.739 107.643 369.744 111.623V206.185C369.739 210.164 368.157 213.979 365.343 216.793C362.529 219.607 358.714 221.19 354.734 221.194H345.103C343.511 221.196 341.985 221.829 340.859 222.955C339.733 224.081 339.1 225.607 339.099 227.199V274.232C339.102 275.14 338.83 276.028 338.317 276.778C337.805 277.527 337.076 278.103 336.228 278.428C335.704 278.633 335.147 278.739 334.584 278.739ZM15.0093 98.6133C11.5602 98.6172 8.25349 99.989 5.81462 102.428C3.37575 104.867 2.00389 108.173 2 111.623V206.185C2.0039 209.634 3.37577 212.941 5.81464 215.38C8.25351 217.819 11.5602 219.19 15.0093 219.194H277.229C278.338 219.196 279.436 219.427 280.451 219.874C281.467 220.32 282.379 220.973 283.129 221.79L332.751 275.923C333.092 276.295 333.537 276.555 334.028 276.669C334.519 276.784 335.033 276.747 335.503 276.564C335.973 276.382 336.377 276.061 336.661 275.645C336.946 275.229 337.098 274.737 337.099 274.232V227.199C337.101 225.077 337.945 223.042 339.446 221.542C340.946 220.041 342.981 219.197 345.103 219.194H354.734C358.184 219.19 361.49 217.819 363.929 215.38C366.368 212.941 367.74 209.634 367.744 206.185V111.623C367.74 108.173 366.368 104.867 363.929 102.428C361.49 99.989 358.184 98.6172 354.734 98.6133H15.0093Z" fill="url(#paint3_linear_378_2998)"/>
<path d="M36.8158 138.33C44.0694 138.33 49.9495 132.45 49.9495 125.196C49.9495 117.943 44.0694 112.062 36.8158 112.062C29.5623 112.062 23.6821 117.943 23.6821 125.196C23.6821 132.45 29.5623 138.33 36.8158 138.33Z" fill="url(#paint4_linear_378_2998)"/>
<path d="M339.412 197.865H30.3319C29.4113 197.866 28.4996 197.685 27.6487 197.334C26.7979 196.982 26.0248 196.467 25.3734 195.816C24.7221 195.166 24.2054 194.393 23.8528 193.543C23.5003 192.692 23.3188 191.781 23.3188 190.86C23.3188 189.939 23.5003 189.028 23.8528 188.178C24.2054 187.327 24.7221 186.555 25.3734 185.904C26.0248 185.254 26.7979 184.738 27.6487 184.386C28.4996 184.035 29.4113 183.854 30.3319 183.855H339.412C341.268 183.858 343.048 184.597 344.359 185.91C345.671 187.223 346.408 189.004 346.408 190.86C346.408 192.716 345.671 194.497 344.359 195.81C343.048 197.124 341.268 197.862 339.412 197.865Z" fill="#746ED5"/>
<path d="M238.72 168.099H30.3319C29.4113 168.1 28.4996 167.92 27.6487 167.568C26.7979 167.217 26.0248 166.701 25.3734 166.051C24.7221 165.4 24.2054 164.627 23.8528 163.777C23.5003 162.927 23.3188 162.015 23.3188 161.095C23.3188 160.174 23.5003 159.262 23.8528 158.412C24.2054 157.562 24.7221 156.789 25.3734 156.139C26.0248 155.488 26.7979 154.972 27.6487 154.621C28.4996 154.269 29.4113 154.089 30.3319 154.09H238.72C240.578 154.09 242.359 154.828 243.673 156.142C244.987 157.455 245.725 159.237 245.725 161.095C245.725 162.952 244.987 164.734 243.673 166.048C242.359 167.361 240.578 168.099 238.72 168.099Z" fill="#746ED5"/>
<path d="M555.067 599.428C554.219 599.103 553.49 598.527 552.978 597.778C552.465 597.028 552.193 596.14 552.196 595.232V548.199C552.195 546.607 551.562 545.081 550.436 543.955C549.31 542.829 547.784 542.196 546.192 542.194H536.561C532.581 542.19 528.766 540.607 525.952 537.793C523.138 534.979 521.556 531.164 521.551 527.185V432.623C521.556 428.643 523.138 424.828 525.952 422.014C528.766 419.2 532.581 417.618 536.561 417.613H876.286C880.265 417.618 884.08 419.2 886.894 422.014C889.708 424.828 891.291 428.643 891.295 432.623V527.185C891.291 531.164 889.708 534.979 886.894 537.793C884.08 540.607 880.265 542.19 876.286 542.194H614.066C613.234 542.195 612.411 542.369 611.649 542.704C610.887 543.039 610.203 543.529 609.64 544.142L560.018 598.275C559.599 598.736 559.088 599.104 558.519 599.356C557.95 599.608 557.334 599.739 556.711 599.739C556.148 599.739 555.591 599.633 555.067 599.428Z" fill="url(#paint5_linear_378_2998)"/>
<path d="M555.067 599.428C554.219 599.103 553.49 598.527 552.978 597.778C552.465 597.028 552.193 596.14 552.196 595.232V548.199C552.195 546.607 551.562 545.081 550.436 543.955C549.31 542.829 547.784 542.196 546.192 542.194H536.561C532.581 542.19 528.766 540.607 525.952 537.793C523.138 534.979 521.556 531.164 521.551 527.185V432.623C521.556 428.643 523.138 424.828 525.952 422.014C528.766 419.2 532.581 417.618 536.561 417.613H876.286C880.265 417.618 884.08 419.2 886.894 422.014C889.708 424.828 891.291 428.643 891.295 432.623V527.185C891.291 531.164 889.708 534.979 886.894 537.793C884.08 540.607 880.265 542.19 876.286 542.194H614.066C613.234 542.195 612.411 542.369 611.649 542.704C610.887 543.039 610.203 543.529 609.64 544.142L560.018 598.275C559.599 598.736 559.088 599.104 558.519 599.356C557.95 599.608 557.334 599.739 556.711 599.739C556.148 599.739 555.591 599.633 555.067 599.428ZM536.561 419.613C533.111 419.617 529.805 420.989 527.366 423.428C524.927 425.867 523.555 429.173 523.551 432.623V527.185C523.555 530.634 524.927 533.941 527.366 536.38C529.805 538.819 533.111 540.19 536.561 540.194H546.192C548.314 540.197 550.349 541.041 551.849 542.542C553.35 544.042 554.194 546.077 554.197 548.199V595.232C554.197 595.737 554.349 596.229 554.634 596.645C554.918 597.061 555.322 597.382 555.792 597.564C556.262 597.747 556.776 597.784 557.267 597.669C557.758 597.555 558.203 597.295 558.544 596.923L608.166 542.79C608.916 541.973 609.828 541.32 610.844 540.874C611.859 540.427 612.957 540.196 614.066 540.194H876.286C879.735 540.19 883.042 538.819 885.48 536.38C887.919 533.941 889.291 530.634 889.295 527.185V432.623C889.291 429.173 887.919 425.867 885.48 423.428C883.042 420.989 879.735 419.617 876.286 419.613H536.561Z" fill="url(#paint6_linear_378_2998)"/>
<path d="M449.178 627.713C435.246 636.634 419.105 641.498 402.564 641.761C386.023 642.025 369.736 637.676 355.527 629.203C358.027 624.55 361.194 620.288 364.928 616.553C370.689 610.764 377.7 606.373 385.423 603.717C393.146 601.061 401.375 600.211 409.478 601.232C417.581 602.252 425.342 605.117 432.165 609.605C438.988 614.093 444.692 620.086 448.837 627.123C448.947 627.313 449.067 627.513 449.178 627.713Z" fill="url(#paint7_linear_378_2998)"/>
<path d="M398.443 580.887C422.854 580.887 442.644 561.098 442.644 536.686C442.644 512.274 422.854 492.484 398.443 492.484C374.031 492.484 354.241 512.274 354.241 536.686C354.241 561.098 374.031 580.887 398.443 580.887Z" fill="#2F2E41"/>
<path d="M431.333 567.863C440.048 551.92 434.188 531.932 418.246 523.217C402.303 514.502 382.314 520.361 373.599 536.303C364.884 552.246 370.744 572.235 386.686 580.95C402.629 589.665 422.618 583.806 431.333 567.863Z" fill="#FFB8B8"/>
<path d="M367.898 531.39C375.416 536.572 384.339 539.329 393.469 539.293C390.212 541.551 386.504 543.076 382.601 543.764C394.74 546.368 407.287 546.438 419.454 543.971C422.159 543.537 424.769 542.641 427.169 541.321C428.366 540.653 429.408 539.741 430.228 538.644C431.049 537.546 431.629 536.289 431.931 534.952C432.74 530.333 429.141 526.137 425.4 523.309C419.673 519.044 413.07 516.106 406.069 514.707C399.067 513.308 391.842 513.483 384.916 515.219C380.394 516.388 375.864 518.363 372.926 521.995C369.989 525.626 369.119 531.225 371.917 534.965L367.898 531.39Z" fill="#2F2E41"/>
<path d="M401.147 643.768C379.5 643.762 358.581 635.95 342.227 621.767C325.873 607.584 315.181 587.98 312.112 566.551C309.043 545.122 313.803 523.305 325.52 505.102C337.236 486.899 355.122 473.53 375.898 467.448C396.673 461.366 418.945 462.979 438.628 471.99C458.311 481.001 474.085 496.807 483.057 516.508C492.028 536.209 493.596 558.484 487.473 579.247C481.349 600.011 467.945 617.87 449.718 629.55C435.224 638.844 418.365 643.779 401.147 643.768ZM401.147 465.768C383.74 465.767 366.724 470.927 352.249 480.597C337.775 490.267 326.494 504.012 319.832 520.094C313.169 536.175 311.426 553.871 314.821 570.944C318.217 588.017 326.599 603.699 338.908 616.008C351.217 628.317 366.899 636.699 383.972 640.094C401.044 643.49 418.741 641.746 434.822 635.084C450.904 628.422 464.649 617.14 474.319 602.666C483.989 588.192 489.149 571.175 489.147 553.768C489.121 530.437 479.841 508.07 463.344 491.572C446.846 475.075 424.478 465.795 401.147 465.768Z" fill="#979797"/>
<path d="M563.816 458.329C571.07 458.329 576.95 452.449 576.95 445.195C576.95 437.942 571.07 432.062 563.816 432.062C556.563 432.062 550.682 437.942 550.682 445.195C550.682 452.449 556.563 458.329 563.816 458.329Z" fill="url(#paint8_linear_378_2998)"/>
<path d="M866.412 518.009H557.332C556.411 518.01 555.5 517.83 554.649 517.478C553.798 517.127 553.025 516.611 552.373 515.961C551.722 515.31 551.205 514.538 550.853 513.687C550.5 512.837 550.319 511.925 550.319 511.005C550.319 510.084 550.5 509.173 550.853 508.322C551.205 507.472 551.722 506.699 552.373 506.049C553.025 505.398 553.798 504.882 554.649 504.531C555.5 504.179 556.411 503.999 557.332 504H866.412C868.27 504 870.051 504.738 871.365 506.052C872.678 507.365 873.416 509.147 873.416 511.005C873.416 512.862 872.678 514.644 871.365 515.958C870.051 517.271 868.27 518.009 866.412 518.009Z" fill="#746ED5"/>
<path d="M765.72 488.099H557.332C556.411 488.1 555.5 487.92 554.649 487.568C553.798 487.217 553.025 486.701 552.373 486.051C551.722 485.4 551.205 484.627 550.853 483.777C550.5 482.927 550.319 482.015 550.319 481.095C550.319 480.174 550.5 479.262 550.853 478.412C551.205 477.562 551.722 476.789 552.373 476.139C553.025 475.488 553.798 474.972 554.649 474.621C555.5 474.269 556.411 474.089 557.332 474.09H765.72C767.576 474.092 769.356 474.831 770.668 476.144C771.979 477.458 772.716 479.238 772.716 481.095C772.716 482.951 771.979 484.731 770.668 486.045C769.356 487.358 767.576 488.097 765.72 488.099Z" fill="#746ED5"/>
</g>
<defs>
<linearGradient id="paint0_linear_378_2998" x1="443" y1="-97.5" x2="443" y2="669" gradientUnits="userSpaceOnUse">
<stop stop-color="#D8D6FC"/>
<stop offset="0.494" stop-color="white"/>
</linearGradient>
<linearGradient id="paint1_linear_378_2998" x1="445.328" y1="316.116" x2="531.678" y2="316.116" gradientUnits="userSpaceOnUse">
<stop stop-color="#4F46E5"/>
<stop offset="1" stop-color="#7C74FF"/>
</linearGradient>
<linearGradient id="paint2_linear_378_2998" x1="348.5" y1="114" x2="-20.5" y2="204" gradientUnits="userSpaceOnUse">
<stop stop-color="white"/>
<stop offset="1" stop-color="#D4D2FC"/>
</linearGradient>
<linearGradient id="paint3_linear_378_2998" x1="370" y1="188" x2="4.91685e-06" y2="187.676" gradientUnits="userSpaceOnUse">
<stop stop-color="#C6CAD3"/>
<stop offset="1" stop-color="#8A8F9A"/>
</linearGradient>
<linearGradient id="paint4_linear_378_2998" x1="23.6821" y1="125.196" x2="49.9495" y2="125.196" gradientUnits="userSpaceOnUse">
<stop stop-color="#4F46E5"/>
<stop offset="1" stop-color="#7C74FF"/>
</linearGradient>
<linearGradient id="paint5_linear_378_2998" x1="891" y1="418" x2="554.5" y2="565" gradientUnits="userSpaceOnUse">
<stop stop-color="#D4D2FC"/>
<stop offset="1" stop-color="white"/>
</linearGradient>
<linearGradient id="paint6_linear_378_2998" x1="891.551" y1="509" x2="521.551" y2="508.676" gradientUnits="userSpaceOnUse">
<stop stop-color="#807F9E"/>
<stop offset="1" stop-color="#C6CAD3"/>
</linearGradient>
<linearGradient id="paint7_linear_378_2998" x1="355.527" y1="621.292" x2="449.178" y2="621.292" gradientUnits="userSpaceOnUse">
<stop stop-color="#4F46E5"/>
<stop offset="1" stop-color="#7C74FF"/>
</linearGradient>
<linearGradient id="paint8_linear_378_2998" x1="550.682" y1="445.196" x2="576.95" y2="445.196" gradientUnits="userSpaceOnUse">
<stop stop-color="#4F46E5"/>
<stop offset="1" stop-color="#7C74FF"/>
</linearGradient>
<clipPath id="clip0_378_2998">
<rect width="946" height="821" fill="white"/>
</clipPath>
</defs>
</svg>
