<svg xmlns="http://www.w3.org/2000/svg" width="128" height="36" viewBox="0 0 128 36"><rect width="100%" height="100%" fill="#DDDDDD"/><path fill="#999999" d="M34.99 22.84h2.34v1.67h-7.2v-1.67h2.64v-7.58q0-.45.02-.93l-1.87 1.57q-.16.12-.32.15-.15.04-.29.01-.14-.03-.25-.1-.11-.06-.16-.14l-.71-.97 3.97-3.37h1.83v11.36Zm8.96-.4h3.33q.37 0 .58.2.21.2.21.54v1.33h-8.93v-.74q0-.22.09-.47.1-.25.31-.45l3.95-3.96q.49-.5.88-.96.39-.46.66-.91.26-.45.4-.91.14-.47.14-.98 0-.47-.14-.82-.13-.36-.38-.6t-.6-.36q-.34-.13-.77-.13-.4 0-.74.12-.34.11-.6.31-.26.2-.44.47-.18.27-.27.6-.15.41-.39.55-.25.13-.71.06l-1.17-.21q.14-.93.53-1.64.38-.71.96-1.18t1.34-.71q.75-.24 1.61-.24.9 0 1.65.27.75.26 1.28.75.53.48.82 1.17.3.68.3 1.52 0 .72-.21 1.33-.21.61-.57 1.17-.35.56-.83 1.08t-1 1.06l-2.93 3q.42-.13.84-.19.42-.07.8-.07Zm10.17.48q.55 0 .96-.16.41-.16.7-.44.28-.28.42-.66.15-.39.15-.84 0-1.07-.6-1.62-.59-.55-1.63-.55-1.05 0-1.64.55-.6.55-.6 1.62 0 .45.15.84.14.38.43.66.28.28.69.44.42.16.97.16Zm0-9.89q-.5 0-.86.15t-.6.41q-.24.25-.35.59-.11.33-.11.7 0 .39.09.75.1.37.32.65.23.28.6.45.37.17.91.17t.91-.17q.36-.17.59-.45.22-.28.32-.65.09-.36.09-.75 0-.37-.11-.7-.12-.34-.35-.59-.24-.26-.6-.41-.36-.15-.85-.15Zm2.19 4.69q1.19.39 1.76 1.19.56.79.56 1.95 0 .86-.32 1.56-.33.7-.93 1.2-.59.49-1.42.76-.84.27-1.84.27-1.01 0-1.84-.27-.84-.27-1.43-.76-.6-.5-.92-1.2-.33-.7-.33-1.56 0-1.16.57-1.95.56-.8 1.75-1.19-.94-.39-1.42-1.12-.47-.73-.47-1.76 0-.73.3-1.37.3-.64.84-1.11.54-.48 1.29-.74.76-.27 1.66-.27.9 0 1.65.27.75.26 1.29.74.54.47.84 1.11.3.64.3 1.37 0 1.03-.47 1.76t-1.42 1.12Zm16.87 3.81L72 22.69l-3.05-3.05-3.08 3.07-1.18-1.16 3.08-3.09-2.93-2.93 1.17-1.17 2.93 2.93 2.92-2.91 1.18 1.17-2.92 2.92 3.06 3.06Zm7.49-6.2-1.17-.21q.13-.93.52-1.64.39-.71.97-1.18t1.33-.71q.75-.24 1.61-.24.9 0 1.63.26.72.25 1.24.71.51.45.78 1.07.28.61.28 1.32 0 .62-.14 1.09-.14.47-.4.83-.26.35-.65.59t-.87.4q1.17.37 1.74 1.13.58.76.58 1.9 0 .97-.36 1.72-.36.74-.97 1.25-.62.51-1.42.77-.81.26-1.71.26-.98 0-1.71-.22-.73-.23-1.27-.67-.54-.44-.91-1.08-.38-.64-.65-1.47l.98-.41q.39-.16.72-.08.34.07.49.36.17.32.36.62.19.31.46.55.27.23.64.38.36.15.87.15.56 0 .99-.18.42-.19.7-.48.29-.3.43-.67.14-.36.14-.73 0-.47-.1-.85t-.42-.65q-.31-.27-.9-.43-.59-.15-1.58-.15v-1.58q.82-.01 1.36-.16.54-.14.86-.4.32-.25.44-.61.13-.36.13-.79 0-.92-.51-1.4-.52-.48-1.37-.48-.4 0-.73.12-.33.11-.6.31-.27.2-.45.47-.18.27-.27.6-.15.41-.4.55-.24.13-.69.06Zm16.85-3.83-3.86 4.72-.45.56q.38-.19.82-.29.43-.11.94-.11.74 0 1.43.25.7.24 1.23.73t.86 1.22q.32.73.32 1.7 0 .91-.33 1.71-.34.79-.94 1.39-.6.59-1.45.93-.85.34-1.88.34-1.04 0-1.87-.33-.83-.33-1.41-.93-.59-.6-.9-1.44-.31-.84-.31-1.87 0-.92.37-1.88.38-.97 1.16-2.02l3.11-4.16q.16-.22.47-.37.31-.15.71-.15h1.98Zm-3.35 11.34q.53 0 .97-.18.45-.18.77-.51.32-.32.5-.76t.18-.95q0-.56-.17-1-.17-.45-.49-.76-.31-.31-.76-.47-.44-.16-.97-.16t-.96.18q-.43.18-.74.5-.3.32-.48.75-.17.44-.17.94 0 .54.15.99.15.44.44.76.3.31.73.49t1 .18Z"/></svg>