<svg width="30" height="33" viewBox="0 0 30 33" fill="none" xmlns="http://www.w3.org/2000/svg">
<path fill-rule="evenodd" clip-rule="evenodd" d="M15 4C7.82026 4 2 9.82026 2 17C2 19.132 2.51399 21.1465 3.42529 22.9239L2.02649 28.7991C1.988 28.9611 1.99161 29.1302 2.03699 29.2904C2.08237 29.4506 2.168 29.5965 2.28573 29.7143C2.40346 29.832 2.54937 29.9176 2.70956 29.963C2.86975 30.0084 3.03889 30.012 3.20087 29.9735L9.07606 28.5747C10.8535 29.486 12.868 30 15 30C22.1797 30 28 24.1797 28 17C28 9.82026 22.1797 4 15 4ZM3.95 17C3.95 10.8973 8.89731 5.95 15 5.95C21.1027 5.95 26.05 10.8973 26.05 17C26.05 23.1027 21.1027 28.05 15 28.05C13.0688 28.05 11.256 27.5555 9.67861 26.6868C9.46634 26.5699 9.21818 26.5363 8.98246 26.5924L4.29044 27.7096L5.40762 23.0175C5.46374 22.7818 5.43008 22.5336 5.31321 22.3214C4.44449 20.7438 3.95 18.9311 3.95 17Z" fill="#4F46E5"/>
<path d="M28 6.59991L7.30137 13.2519L11.0282 16.3061L18.9876 12.9877L12.4137 17.2383L11.8406 22.5714L16.5729 20.0383L21.7766 22.3356L28 6.59991Z" fill="#4F46E5"/>
<path d="M18.1314 24.3928C18.2135 24.4802 18.3165 24.5198 18.4238 24.5203C18.5311 24.5207 18.6343 24.4776 18.7172 24.3953L19.7239 23.3416C19.8855 23.1725 19.8866 22.8982 19.7265 22.7277C19.5663 22.5573 19.3064 22.5562 19.1448 22.7253L18.1381 23.779C17.9724 23.9439 17.9712 24.2225 18.1314 24.3928Z" fill="#4F46E5"/>
<path d="M17.0016 21.2661C16.8414 21.0957 16.5815 21.0946 16.4199 21.2637L14.0377 23.757C13.8761 23.9262 13.8749 24.2005 14.0351 24.371C14.1172 24.4583 14.2202 24.4979 14.3275 24.4984C14.4348 24.4988 14.538 24.4557 14.6209 24.3734L17.0031 21.8801C17.1606 21.7151 17.1617 21.4366 17.0016 21.2661Z" fill="#4F46E5"/>
<path d="M17.7785 21.9922L16.084 23.7658C15.9224 23.9349 15.9212 24.2092 16.0814 24.3797C16.1635 24.467 16.2665 24.5067 16.3738 24.5071C16.4811 24.5075 16.5843 24.4644 16.6672 24.3821L18.3617 22.6085C18.5233 22.4394 18.5245 22.1651 18.3643 21.9946C18.2041 21.8242 17.9401 21.8231 17.7785 21.9922Z" fill="#4F46E5"/>
<path d="M8.79266 18.7316C8.86199 18.8294 8.95859 18.8828 9.06482 18.8979C9.17106 18.9131 9.27918 18.8845 9.3726 18.8143L10.5141 17.9085C10.6974 17.7631 10.7361 17.4915 10.6008 17.3007C10.4654 17.1099 10.2081 17.0732 10.0249 17.2186L8.88337 18.1245C8.69663 18.2651 8.65732 18.541 8.79266 18.7316Z" fill="#4F46E5"/>
<path d="M8.10171 15.4798C7.96639 15.289 7.7091 15.2523 7.52586 15.3977L4.82458 17.5412C4.64134 17.6866 4.60264 17.9582 4.73796 18.149C4.80729 18.2468 4.90389 18.3001 5.01012 18.3153C5.11635 18.3304 5.22448 18.3018 5.3179 18.2316L8.01918 16.0881C8.19772 15.9463 8.23702 15.6706 8.10171 15.4798Z" fill="#4F46E5"/>
<path d="M8.77186 16.3055L6.85037 17.8302C6.66713 17.9756 6.62843 18.2472 6.76375 18.438C6.83308 18.5358 6.92968 18.5891 7.03591 18.6043C7.14214 18.6194 7.25027 18.5908 7.34369 18.5206L9.26518 16.9959C9.44842 16.8505 9.48712 16.5789 9.3518 16.3881C9.21649 16.1973 8.9551 16.1601 8.77186 16.3055Z" fill="#4F46E5"/>
</svg>
